<svg width="771" height="1117" viewBox="0 0 771 1117" fill="none" xmlns="http://www.w3.org/2000/svg">
<g style="mix-blend-mode:multiply">
<path d="M572.416 488.525C524.457 465.068 461.963 415.553 435.721 300.704C407.553 177.425 280.285 67.9255 154.648 209.799C18.6906 363.326 23.0925 525.978 36.5669 604.305C66.098 775.978 235.601 870.531 365.287 872.295C481.674 873.877 586.729 808.904 634.094 714.513C680.065 622.902 647.762 525.377 572.416 488.525Z" fill="url(#paint0_radial_175_2375)"/>
</g>
<g style="mix-blend-mode:multiply">
<path d="M726.464 936.427C717.271 901.674 693.746 801.467 563.906 678.876C457.735 578.63 332.93 536.984 246.142 537C179.211 537.013 89.6523 563.171 -37.0396 737.664C-144.797 886.079 -178.754 1123.79 -141.324 1218.83C-77.6979 1380.39 68.5712 1380.28 239.993 1280.81C411.414 1181.34 498.303 1129.98 642.311 1117.57C752.103 1108.1 755.249 1045.27 726.464 936.427Z" fill="url(#paint1_radial_175_2375)"/>
</g>
<g style="mix-blend-mode:multiply">
<path d="M473.093 93.2173C454.656 48.8377 399.181 19.8928 337.288 22.4493C269.341 25.2566 234.713 20.0004 192.253 -2.216C151.706 -23.4325 89.9975 -86.719 -1.07166 -64.241C-110.415 -37.2529 -180.646 53.6015 -192.811 157.128C-206.405 272.821 -158.067 430.966 -9.09569 498.524C139.877 566.083 295.42 463.361 369.786 377.12C507.661 217.23 491.901 138.493 473.092 93.2177L473.093 93.2173Z" fill="url(#paint2_radial_175_2375)"/>
</g>
<defs>
<radialGradient id="paint0_radial_175_2375" cx="0" cy="0" r="1" gradientUnits="userSpaceOnUse" gradientTransform="translate(353.663 521.865) rotate(17.5791) scale(332.174 339.744)">
<stop stop-color="#F7B369"/>
<stop offset="1" stop-color="#B8E5E2"/>
</radialGradient>
<radialGradient id="paint1_radial_175_2375" cx="0" cy="0" r="1" gradientUnits="userSpaceOnUse" gradientTransform="translate(292.923 943.048) scale(413.999 447.271)">
<stop stop-color="#D59DFF"/>
<stop offset="1" stop-color="#B8E5E2"/>
</radialGradient>
<radialGradient id="paint2_radial_175_2375" cx="0" cy="0" r="1" gradientUnits="userSpaceOnUse" gradientTransform="translate(145.154 225.696) scale(315.217 322.401)">
<stop stop-color="#A37B90"/>
<stop offset="1" stop-color="#B8E5E2"/>
</radialGradient>
</defs>
</svg>
