<svg width="360" height="88" viewBox="0 0 360 88" fill="none" xmlns="http://www.w3.org/2000/svg">
<path d="M199.228 69.0244C197.877 69.0244 196.688 68.7803 195.663 68.292C194.654 67.7874 194.003 67.1608 193.71 66.4121C193.417 65.6634 193.271 64.9229 193.271 64.1904C193.271 63.8161 193.303 63.4173 193.368 62.9941C194.117 57.4277 194.491 54.0342 194.491 52.8135C194.491 52.4066 194.41 52.2031 194.247 52.2031C194.035 52.2031 193.873 52.3903 193.759 52.7646C193.612 53.2529 192.855 55.5479 191.488 59.6494C190.121 63.7347 188.599 65.7773 186.923 65.7773C185.246 65.7773 183.725 63.7347 182.357 59.6494C180.99 55.5479 180.233 53.2529 180.087 52.7646C179.973 52.3903 179.81 52.2031 179.599 52.2031C179.436 52.2031 179.354 52.4066 179.354 52.8135C179.354 54.0342 179.729 57.4277 180.478 62.9941C180.543 63.4173 180.575 63.8161 180.575 64.1904C180.575 64.9229 180.429 65.6634 180.136 66.4121C179.843 67.1608 179.184 67.7874 178.158 68.292C177.149 68.7803 175.969 69.0244 174.618 69.0244C172.567 69.0244 171.005 68.528 169.931 67.5352C168.873 66.5423 168.157 64.8822 167.782 62.5547C167.408 60.2272 167.221 57.0452 167.221 53.0088C167.221 47.5889 167.522 42.4131 168.124 37.4814C168.498 34.4704 170.606 32.9648 174.447 32.9648C176.645 32.9648 178.305 33.502 179.428 34.5762C180.551 35.6504 181.495 37.1803 182.26 39.166C183.35 42.0632 184.538 45.3346 185.824 48.9805C186.215 50.1035 186.581 50.665 186.923 50.665C187.265 50.665 187.631 50.1117 188.021 49.0049C189.226 45.5706 190.422 42.291 191.61 39.166C192.359 37.1803 193.295 35.6504 194.418 34.5762C195.541 33.502 197.201 32.9648 199.398 32.9648C203.24 32.9648 205.347 34.4704 205.722 37.4814C206.324 42.4131 206.625 47.5889 206.625 53.0088C206.625 57.0452 206.438 60.2272 206.063 62.5547C205.689 64.8822 204.965 66.5423 203.891 67.5352C202.833 68.528 201.278 69.0244 199.228 69.0244Z" fill="#072D5A"/>
<ellipse cx="37.5" cy="38" rx="37.5" ry="38" fill="#072D5A"/>
<circle cx="37" cy="38" r="19" fill="white"/>
<ellipse cx="60.3608" cy="65.1234" rx="10.7108" ry="9.73583" transform="rotate(35.0872 60.3608 65.1234)" fill="#072D5A"/>
<ellipse cx="76" cy="78.5" rx="5" ry="4.5" fill="#F9CE68"/>
<path d="M98.904 50.632C98.904 49.64 98.84 48.664 98.712 47.704C98.616 46.744 98.488 45.784 98.328 44.824C98.2 43.864 98.072 42.904 97.944 41.944C97.816 40.952 97.752 39.976 97.752 39.016C97.752 38.504 97.784 37.96 97.848 37.384C97.944 36.776 98.104 36.232 98.328 35.752C98.584 35.24 98.904 34.824 99.288 34.504C99.704 34.152 100.248 33.976 100.92 33.976C101.976 33.976 102.888 34.328 103.656 35.032C104.424 35.736 105.08 36.648 105.624 37.768C106.2 38.856 106.664 40.088 107.016 41.464C107.368 42.84 107.64 44.2 107.832 45.544C108.056 46.856 108.2 48.088 108.264 49.24C108.36 50.392 108.408 51.32 108.408 52.024C108.408 54.36 108.2 56.616 107.784 58.792C107.4 60.968 106.696 62.888 105.672 64.552C104.68 66.216 103.304 67.544 101.544 68.536C99.816 69.528 97.592 70.024 94.872 70.024C92.312 70.024 90.216 69.56 88.584 68.632C86.984 67.736 85.72 66.536 84.792 65.032C83.896 63.496 83.272 61.736 82.92 59.752C82.6 57.736 82.44 55.624 82.44 53.416C82.44 52.648 82.488 51.656 82.584 50.44C82.68 49.192 82.84 47.864 83.064 46.456C83.288 45.016 83.592 43.576 83.976 42.136C84.392 40.696 84.904 39.4 85.512 38.248C86.12 37.064 86.84 36.104 87.672 35.368C88.536 34.632 89.528 34.264 90.648 34.264C91.384 34.264 91.992 34.44 92.472 34.792C92.984 35.112 93.384 35.544 93.672 36.088C93.992 36.6 94.216 37.176 94.344 37.816C94.472 38.456 94.536 39.08 94.536 39.688C94.536 40.648 94.456 41.624 94.296 42.616C94.168 43.576 94.008 44.552 93.816 45.544C93.624 46.504 93.448 47.496 93.288 48.52C93.16 49.512 93.096 50.52 93.096 51.544C93.096 52.024 93.112 52.52 93.144 53.032C93.208 53.512 93.336 53.96 93.528 54.376C93.72 54.792 94.008 55.128 94.392 55.384C94.776 55.64 95.304 55.768 95.976 55.768C96.744 55.768 97.32 55.608 97.704 55.288C98.12 54.936 98.408 54.504 98.568 53.992C98.76 53.48 98.856 52.92 98.856 52.312C98.888 51.704 98.904 51.144 98.904 50.632ZM116.314 28.6C116.314 27.832 116.474 27.176 116.794 26.632C117.114 26.088 117.514 25.64 117.994 25.288C118.506 24.904 119.082 24.632 119.722 24.472C120.362 24.312 121.018 24.232 121.69 24.232C122.362 24.232 123.002 24.328 123.61 24.52C124.25 24.68 124.81 24.936 125.29 25.288C125.802 25.64 126.202 26.088 126.49 26.632C126.81 27.176 126.97 27.816 126.97 28.552C126.97 29.288 126.81 29.944 126.49 30.52C126.202 31.064 125.802 31.528 125.29 31.912C124.81 32.264 124.25 32.536 123.61 32.728C122.97 32.92 122.314 33.016 121.642 33.016C120.97 33.016 120.314 32.936 119.674 32.776C119.034 32.584 118.458 32.312 117.946 31.96C117.466 31.576 117.066 31.112 116.746 30.568C116.458 29.992 116.314 29.336 116.314 28.6ZM115.546 53.416C115.61 52.552 115.658 51.768 115.69 51.064C115.754 50.328 115.786 49.608 115.786 48.904C115.818 48.2 115.834 47.48 115.834 46.744C115.834 45.976 115.834 45.16 115.834 44.296C115.834 43.08 115.866 41.848 115.93 40.6C116.026 39.352 116.266 38.232 116.65 37.24C117.034 36.216 117.626 35.384 118.426 34.744C119.226 34.104 120.346 33.784 121.786 33.784C122.97 33.784 123.882 33.96 124.522 34.312C125.194 34.664 125.69 35.144 126.01 35.752C126.33 36.36 126.522 37.064 126.586 37.864C126.682 38.664 126.73 39.512 126.73 40.408C126.73 42.2 126.666 44.024 126.538 45.88C126.442 47.704 126.506 49.512 126.73 51.304C126.954 53.128 127.226 54.92 127.546 56.68C127.898 58.44 128.074 60.264 128.074 62.152C128.074 63.112 127.898 63.992 127.546 64.792C127.194 65.592 126.698 66.264 126.058 66.808C125.45 67.352 124.73 67.768 123.898 68.056C123.098 68.376 122.234 68.536 121.306 68.536C120.41 68.536 119.546 68.408 118.714 68.152C117.882 67.928 117.146 67.56 116.506 67.048C115.866 66.568 115.354 65.96 114.97 65.224C114.618 64.456 114.442 63.56 114.442 62.536C114.442 61.864 114.49 61.144 114.586 60.376C114.682 59.576 114.778 58.776 114.874 57.976C115.002 57.176 115.13 56.392 115.258 55.624C115.386 54.824 115.482 54.088 115.546 53.416ZM159.026 61.096C159.026 63.208 158.53 64.808 157.538 65.896C156.578 66.952 155.362 67.704 153.89 68.152C152.418 68.632 150.818 68.888 149.09 68.92C147.394 68.952 145.81 68.968 144.338 68.968C143.506 68.968 142.434 68.952 141.122 68.92C139.842 68.92 138.594 68.776 137.378 68.488C136.162 68.232 135.106 67.784 134.21 67.144C133.346 66.504 132.914 65.56 132.914 64.312C132.914 63.256 133.202 62.072 133.778 60.76C134.386 59.448 135.138 58.104 136.034 56.728C136.93 55.32 137.89 53.912 138.914 52.504C139.97 51.096 140.946 49.752 141.842 48.472C142.738 47.192 143.474 46.024 144.05 44.968C144.658 43.88 144.962 42.984 144.962 42.28C144.962 41.928 144.866 41.656 144.674 41.464C144.514 41.24 144.306 41.08 144.05 40.984C143.794 40.888 143.506 40.824 143.186 40.792C142.866 40.76 142.578 40.744 142.322 40.744C141.65 40.744 140.834 40.792 139.874 40.888C138.946 40.952 138.05 40.936 137.186 40.84C136.322 40.712 135.586 40.424 134.978 39.976C134.402 39.528 134.114 38.792 134.114 37.768C134.114 36.616 134.45 35.752 135.122 35.176C135.826 34.6 136.674 34.2 137.666 33.976C138.658 33.752 139.698 33.64 140.786 33.64C141.874 33.64 142.818 33.624 143.618 33.592C144.642 33.528 145.65 33.48 146.642 33.448C147.634 33.416 148.642 33.4 149.666 33.4C150.21 33.4 150.898 33.432 151.73 33.496C152.562 33.528 153.362 33.656 154.13 33.88C154.93 34.072 155.618 34.392 156.194 34.84C156.77 35.288 157.058 35.896 157.058 36.664C157.058 37.496 156.738 38.504 156.098 39.688C155.49 40.872 154.722 42.136 153.794 43.48C152.866 44.792 151.842 46.12 150.722 47.464C149.634 48.808 148.626 50.072 147.698 51.256C146.77 52.44 145.986 53.48 145.346 54.376C144.738 55.24 144.434 55.864 144.434 56.248C144.434 56.568 144.642 56.76 145.058 56.824C145.474 56.856 145.778 56.872 145.97 56.872C147.122 56.872 148.066 56.728 148.802 56.44C149.538 56.152 150.162 55.832 150.674 55.48C151.218 55.128 151.73 54.808 152.21 54.52C152.69 54.232 153.266 54.088 153.938 54.088C154.802 54.088 155.554 54.312 156.194 54.76C156.834 55.208 157.362 55.784 157.778 56.488C158.194 57.16 158.498 57.912 158.69 58.744C158.914 59.576 159.026 60.36 159.026 61.096ZM223.316 69.16C221.556 69.16 219.908 68.92 218.372 68.44C216.868 67.992 215.556 67.288 214.436 66.328C213.348 65.368 212.484 64.168 211.844 62.728C211.204 61.288 210.884 59.592 210.884 57.64C210.884 56.328 211.092 54.952 211.508 53.512C211.924 52.072 212.532 50.76 213.332 49.576C214.132 48.36 215.124 47.368 216.308 46.6C217.492 45.8 218.836 45.4 220.34 45.4C220.98 45.4 221.588 45.48 222.164 45.64C222.772 45.8 223.38 45.88 223.988 45.88C224.66 45.88 225.076 45.752 225.236 45.496C225.396 45.208 225.492 44.808 225.524 44.296C225.524 43.656 225.444 42.984 225.284 42.28C225.124 41.544 224.884 40.888 224.564 40.312C224.244 39.704 223.86 39.208 223.412 38.824C222.996 38.44 222.516 38.248 221.972 38.248C221.684 38.248 221.396 38.36 221.108 38.584C220.852 38.776 220.612 39.032 220.388 39.352C220.196 39.64 220.036 39.96 219.908 40.312C219.78 40.632 219.716 40.904 219.716 41.128C219.716 41.736 219.588 42.264 219.332 42.712C219.108 43.128 218.788 43.464 218.372 43.72C217.988 43.976 217.54 44.168 217.028 44.296C216.548 44.424 216.068 44.488 215.588 44.488C214.436 44.488 213.604 44.248 213.092 43.768C212.612 43.256 212.372 42.376 212.372 41.128C212.372 39.72 212.692 38.52 213.332 37.528C214.004 36.504 214.836 35.672 215.828 35.032C216.852 34.36 217.988 33.864 219.236 33.544C220.484 33.224 221.684 33.064 222.836 33.064C225.588 33.064 227.812 33.704 229.508 34.984C231.204 36.232 232.516 37.848 233.444 39.832C234.404 41.784 235.044 43.944 235.364 46.312C235.684 48.68 235.844 50.952 235.844 53.128C235.844 55.464 235.684 57.624 235.364 59.608C235.076 61.56 234.484 63.24 233.588 64.648C232.692 66.056 231.412 67.16 229.748 67.96C228.116 68.76 225.972 69.16 223.316 69.16ZM222.692 59.08C223.748 59.08 224.532 58.84 225.044 58.36C225.556 57.848 225.812 57.016 225.812 55.864C225.812 55.416 225.764 54.904 225.668 54.328C225.572 53.752 225.412 53.224 225.188 52.744C224.964 52.232 224.66 51.8 224.276 51.448C223.924 51.096 223.476 50.92 222.932 50.92C222.356 50.92 221.86 51.08 221.444 51.4C221.06 51.72 220.74 52.12 220.484 52.6C220.228 53.048 220.036 53.56 219.908 54.136C219.78 54.68 219.716 55.192 219.716 55.672C219.716 56.12 219.796 56.552 219.956 56.968C220.148 57.384 220.372 57.752 220.628 58.072C220.916 58.36 221.236 58.6 221.588 58.792C221.94 58.984 222.308 59.08 222.692 59.08ZM242.042 59.56C242.042 58.536 242.122 57.576 242.282 56.68C242.474 55.784 242.778 55 243.194 54.328C243.61 53.656 244.17 53.128 244.874 52.744C245.578 52.36 246.458 52.168 247.514 52.168C248.57 52.168 249.45 52.472 250.154 53.08C250.858 53.656 251.21 54.312 251.21 55.048C251.21 56.584 252.042 57.352 253.706 57.352C255.338 57.352 256.154 56.712 256.154 55.432C256.154 54.632 255.834 54.024 255.194 53.608C254.586 53.16 253.818 52.776 252.89 52.456C251.962 52.104 250.954 51.736 249.866 51.352C248.81 50.936 247.818 50.376 246.89 49.672C245.962 48.936 245.178 47.992 244.538 46.84C243.93 45.656 243.626 44.12 243.626 42.232C243.626 39.032 244.57 36.6 246.458 34.936C248.378 33.272 251.178 32.44 254.858 32.44C258.41 32.44 261.114 33.224 262.97 34.792C264.826 36.328 265.754 38.552 265.754 41.464C265.754 43 265.466 44.072 264.89 44.68C264.346 45.288 263.37 45.592 261.962 45.592C260.65 45.592 259.69 45.336 259.082 44.824C258.506 44.312 258.218 43.48 258.218 42.328C258.218 41.304 257.994 40.504 257.546 39.928C257.13 39.352 256.554 39.064 255.818 39.064C254.922 39.064 254.122 39.304 253.418 39.784C252.714 40.232 252.362 41.064 252.362 42.28C252.362 43.592 252.714 44.584 253.418 45.256C254.122 45.928 255.002 46.488 256.058 46.936C257.114 47.352 258.266 47.752 259.514 48.136C260.762 48.488 261.914 49 262.97 49.672C264.058 50.344 264.97 51.288 265.706 52.504C266.474 53.688 266.89 55.304 266.954 57.352V57.832C266.954 61.48 265.882 64.248 263.738 66.136C261.626 67.992 258.522 68.92 254.426 68.92C250.554 68.92 247.514 68.104 245.306 66.472C243.13 64.808 242.042 62.504 242.042 59.56ZM276.457 62.488C276.457 60.984 276.633 59.512 276.985 58.072C277.369 56.632 277.641 55.176 277.801 53.704C277.961 51.784 278.185 49.88 278.473 47.992C278.793 46.072 278.953 44.152 278.953 42.232C278.953 42.072 278.953 41.832 278.953 41.512C278.953 41.192 278.937 40.856 278.905 40.504C278.873 40.152 278.809 39.848 278.713 39.592C278.649 39.336 278.521 39.208 278.329 39.208C278.105 39.208 277.849 39.272 277.561 39.4C277.273 39.496 276.969 39.624 276.649 39.784C276.361 39.912 276.073 40.04 275.785 40.168C275.497 40.264 275.225 40.312 274.969 40.312C273.977 40.312 273.241 39.992 272.761 39.352C272.313 38.712 272.089 37.944 272.089 37.048C272.089 35.864 272.441 35 273.145 34.456C273.881 33.912 274.761 33.56 275.785 33.4C276.809 33.208 277.865 33.144 278.953 33.208C280.073 33.24 281.033 33.256 281.833 33.256C282.409 33.256 283.257 33.256 284.377 33.256C285.529 33.256 286.713 33.288 287.929 33.352C289.177 33.384 290.345 33.448 291.433 33.544C292.521 33.64 293.305 33.768 293.785 33.928C294.521 34.184 295.097 34.6 295.513 35.176C295.961 35.752 296.185 36.44 296.185 37.24C296.185 38.264 295.849 39.048 295.177 39.592C294.537 40.136 293.737 40.408 292.777 40.408C292.553 40.408 292.297 40.36 292.009 40.264C291.721 40.136 291.433 40.024 291.145 39.928C290.889 39.8 290.617 39.688 290.329 39.592C290.073 39.464 289.833 39.4 289.609 39.4C289.385 39.4 289.209 39.592 289.081 39.976C288.953 40.36 288.857 40.808 288.793 41.32C288.761 41.832 288.729 42.328 288.697 42.808C288.697 43.288 288.697 43.624 288.697 43.816C288.697 44.936 288.745 46.056 288.841 47.176C288.969 48.296 289.097 49.416 289.225 50.536C289.481 52.456 289.817 54.376 290.233 56.296C290.681 58.184 290.905 60.104 290.905 62.056C290.905 63.048 290.713 63.944 290.329 64.744C289.945 65.544 289.417 66.232 288.745 66.808C288.105 67.352 287.353 67.768 286.489 68.056C285.625 68.376 284.713 68.536 283.753 68.536C282.825 68.536 281.913 68.408 281.017 68.152C280.153 67.928 279.385 67.56 278.713 67.048C278.041 66.568 277.497 65.944 277.081 65.176C276.665 64.408 276.457 63.512 276.457 62.488ZM312.473 68.392C308.217 68.392 305.065 67.256 303.017 64.984C300.969 62.68 299.945 59.368 299.945 55.048C299.945 52.712 300.265 50.36 300.905 47.992C301.417 46.008 301.737 44.248 301.865 42.712C301.993 41.176 302.105 39.848 302.201 38.728C302.329 37.576 302.521 36.6 302.777 35.8C303.065 35 303.625 34.36 304.457 33.88C305.321 33.4 306.537 33.048 308.105 32.824C309.705 32.6 311.849 32.488 314.537 32.488C315.049 32.488 315.593 32.472 316.169 32.44C316.745 32.408 317.321 32.392 317.897 32.392C318.537 32.392 319.145 32.44 319.721 32.536C320.297 32.6 320.809 32.76 321.257 33.016C321.705 33.272 322.057 33.624 322.313 34.072C322.601 34.52 322.745 35.128 322.745 35.896C322.745 36.632 322.633 37.208 322.409 37.624C322.185 38.04 321.881 38.36 321.497 38.584C321.113 38.776 320.649 38.904 320.105 38.968C319.593 39 319.033 39.016 318.425 39.016C317.593 39.016 316.745 38.952 315.881 38.824C315.049 38.664 314.217 38.584 313.385 38.584C312.745 38.584 312.249 38.648 311.897 38.776C311.577 38.904 311.337 39.096 311.177 39.352C311.017 39.576 310.921 39.88 310.889 40.264C310.857 40.648 310.841 41.096 310.841 41.608C310.841 41.864 310.841 42.152 310.841 42.472C310.841 42.76 310.857 43.032 310.889 43.288C310.953 43.544 311.065 43.752 311.225 43.912C311.417 44.072 311.673 44.152 311.993 44.152C312.953 44.152 313.913 44.056 314.873 43.864C315.833 43.672 316.793 43.576 317.753 43.576C318.169 43.576 318.617 43.608 319.097 43.672C319.609 43.736 320.073 43.864 320.489 44.056C320.905 44.248 321.241 44.52 321.497 44.872C321.785 45.192 321.929 45.624 321.929 46.168C321.929 46.872 321.801 47.448 321.545 47.896C321.321 48.312 321.001 48.632 320.585 48.856C320.169 49.08 319.657 49.224 319.049 49.288C318.473 49.352 317.833 49.384 317.129 49.384C315.913 49.384 314.857 49.288 313.961 49.096C313.097 48.904 312.345 48.808 311.705 48.808C311.449 48.808 311.257 48.984 311.129 49.336C311.001 49.688 310.905 50.104 310.841 50.584C310.809 51.032 310.793 51.48 310.793 51.928C310.793 52.344 310.793 52.648 310.793 52.84C310.793 53.256 310.793 53.688 310.793 54.136C310.825 54.584 310.905 55 311.033 55.384C311.161 55.736 311.369 56.04 311.657 56.296C311.977 56.52 312.409 56.632 312.953 56.632C313.529 56.632 314.073 56.536 314.585 56.344C315.097 56.12 315.609 55.88 316.121 55.624C316.633 55.368 317.161 55.144 317.705 54.952C318.249 54.728 318.857 54.616 319.529 54.616C320.841 54.616 321.785 55.192 322.361 56.344C322.937 57.464 323.225 58.872 323.225 60.568C323.225 61.72 322.921 62.776 322.313 63.736C321.705 64.664 320.889 65.48 319.865 66.184C318.873 66.888 317.737 67.432 316.457 67.816C315.177 68.2 313.849 68.392 312.473 68.392ZM349.916 49C349.916 49.16 350.076 49.336 350.396 49.528C350.748 49.72 351.164 49.976 351.644 50.296C352.124 50.616 352.652 51.016 353.228 51.496C353.804 51.944 354.332 52.504 354.812 53.176C355.612 54.296 356.22 55.496 356.636 56.776C357.052 58.056 357.26 59.4 357.26 60.808C357.26 61.8 357.148 62.776 356.924 63.736C356.7 64.696 356.332 65.56 355.82 66.328C355.308 67.064 354.652 67.656 353.852 68.104C353.052 68.584 352.092 68.824 350.972 68.824C350.268 68.824 349.516 68.712 348.716 68.488C347.916 68.296 347.164 67.992 346.46 67.576C345.788 67.16 345.228 66.632 344.78 65.992C344.332 65.352 344.108 64.616 344.108 63.784C344.108 62.952 344.188 62.312 344.348 61.864C344.508 61.384 344.684 60.952 344.876 60.568C345.068 60.184 345.244 59.8 345.404 59.416C345.564 59.032 345.644 58.504 345.644 57.832C345.644 57.352 345.564 56.744 345.404 56.008C345.276 55.24 345.052 54.504 344.732 53.8C344.444 53.064 344.076 52.44 343.628 51.928C343.18 51.416 342.668 51.16 342.092 51.16C341.836 51.16 341.612 51.256 341.42 51.448C341.228 51.608 341.068 51.816 340.94 52.072C340.812 52.328 340.716 52.6 340.652 52.888C340.588 53.176 340.556 53.416 340.556 53.608C340.556 54.472 340.684 55.32 340.94 56.152C341.196 56.952 341.484 57.768 341.804 58.6C342.124 59.4 342.412 60.216 342.668 61.048C342.924 61.848 343.052 62.68 343.052 63.544C343.052 64.6 342.828 65.48 342.38 66.184C341.932 66.856 341.34 67.4 340.604 67.816C339.9 68.264 339.1 68.568 338.204 68.728C337.308 68.92 336.412 69.016 335.516 69.016C333.052 69.016 331.276 68.456 330.188 67.336C329.1 66.248 328.556 64.488 328.556 62.056C328.556 61.32 328.636 60.616 328.796 59.944C328.956 59.24 329.116 58.552 329.276 57.88C329.468 57.176 329.644 56.488 329.804 55.816C329.964 55.112 330.044 54.408 330.044 53.704C330.044 53.032 330.012 52.36 329.948 51.688C329.916 51.016 329.9 50.344 329.9 49.672C329.9 47.912 330.092 46.04 330.476 44.056C330.86 42.04 331.548 40.184 332.54 38.488C333.532 36.76 334.876 35.336 336.572 34.216C338.268 33.096 340.412 32.536 343.004 32.536C344.54 32.536 346.092 32.696 347.66 33.016C349.228 33.336 350.636 33.88 351.884 34.648C353.164 35.384 354.204 36.36 355.004 37.576C355.804 38.76 356.204 40.232 356.204 41.992C356.204 42.856 356.044 43.608 355.724 44.248C355.436 44.888 355.052 45.448 354.572 45.928C354.124 46.408 353.628 46.824 353.084 47.176C352.54 47.496 352.028 47.784 351.548 48.04C351.1 48.264 350.716 48.456 350.396 48.616C350.076 48.744 349.916 48.872 349.916 49ZM343.868 46.456C344.348 46.456 344.78 46.36 345.164 46.168C345.58 45.944 345.932 45.656 346.22 45.304C346.508 44.952 346.732 44.568 346.892 44.152C347.052 43.704 347.132 43.24 347.132 42.76C347.132 41.96 346.908 41.24 346.46 40.6C346.044 39.96 345.404 39.64 344.54 39.64C344.028 39.64 343.532 39.784 343.052 40.072C342.604 40.328 342.204 40.664 341.852 41.08C341.5 41.496 341.228 41.976 341.036 42.52C340.844 43.032 340.748 43.528 340.748 44.008C340.748 44.84 341.084 45.464 341.756 45.88C342.428 46.264 343.132 46.456 343.868 46.456Z" fill="#3A414A"/>
</svg>
